<svg width="72" height="72" viewBox="0 0 72 72" fill="none" xmlns="http://www.w3.org/2000/svg">
<path fill-rule="evenodd" clip-rule="evenodd" d="M27 12C23.7 12 21 14.7 21 18C21 21.3 23.7 24 27 24C30.3 24 33 21.3 33 18C33 14.7 30.3 12 27 12ZM21 36C21 32.7 23.7 30 27 30C30.3 30 33 32.7 33 36C33 39.3 30.3 42 27 42C23.7 42 21 39.3 21 36ZM27 60C30.3 60 33 57.3 33 54C33 50.7 30.3 48 27 48C23.7 48 21 50.7 21 54C21 57.3 23.7 60 27 60ZM51 18C51 21.3 48.3 24 45 24C41.7 24 39 21.3 39 18C39 14.7 41.7 12 45 12C48.3 12 51 14.7 51 18ZM45 30C41.7 30 39 32.7 39 36C39 39.3 41.7 42 45 42C48.3 42 51 39.3 51 36C51 32.7 48.3 30 45 30ZM39 54C39 50.7 41.7 48 45 48C48.3 48 51 50.7 51 54C51 57.3 48.3 60 45 60C41.7 60 39 57.3 39 54Z" fill="#F68A0A"/>
</svg>
