<svg width="72" height="72" viewBox="0 0 72 72" fill="none" xmlns="http://www.w3.org/2000/svg">
<path d="M20.0705 25.4216C20.3255 24.5775 21.1033 24 21.9851 24H49.5296C50.4044 24 51.1777 24.5685 51.4386 25.4034L65.1886 69.4035C65.591 70.6913 64.6289 72 63.2796 72H8.69343C7.35211 72 6.391 70.7057 6.77888 69.4216L20.0705 25.4216Z" fill="#F68A0A"/>
<rect x="6" y="53" width="60" height="19" rx="2" fill="#F68A0A"/>
<path d="M21.8317 12.5002C21.9313 11.6123 22.6077 10.8982 23.4888 10.7506L42.4237 7.57838C42.952 7.48987 43.4937 7.617 43.9275 7.9313L63.1094 21.8288C63.6971 22.2546 64.0081 22.9653 63.9219 23.6859L62.9332 31.9513C62.802 33.0481 61.8066 33.8308 60.7098 33.6996L21.9713 29.066C20.8803 28.9354 20.0988 27.9492 20.2213 26.8572L21.8317 12.5002Z" fill="#F68A0A"/>
<path d="M20.6988 11.1704C20.6041 10.1885 21.2395 9.28418 22.1953 9.04039L43.6189 3.57652C44.8073 3.27343 45.9861 4.10159 46.1039 5.3224L46.4561 8.97216C46.5622 10.0716 45.7569 11.0489 44.6574 11.155L22.9091 13.2535C21.8097 13.3596 20.8324 12.5543 20.7263 11.4548L20.6988 11.1704Z" fill="#F68A0A"/>
<path d="M19.5009 11.738C20.0169 10.5821 21.4634 10.1903 22.4922 10.9277L23.601 11.7224C24.2194 12.1655 24.5328 12.9211 24.4096 13.6718L20.7751 35.8237C20.6165 36.7904 19.781 37.4999 18.8015 37.4999L11.0831 37.5C9.63438 37.5 8.66626 36.0076 9.25684 34.6847L19.5009 11.738Z" fill="#F68A0A"/>
</svg>
